<svg width="28" height="22" viewBox="0 0 28 22" fill="none" xmlns="http://www.w3.org/2000/svg">
<path d="M4.24609 21.2881C3.08594 21.2881 2.20866 20.9909 1.61426 20.3965C1.01986 19.8092 0.722656 18.9427 0.722656 17.7969V6.52832C0.722656 5.38249 1.01986 4.51595 1.61426 3.92871C2.20866 3.33431 3.08594 3.03711 4.24609 3.03711H7.06055C7.48307 3.03711 7.79818 2.99056 8.00586 2.89746C8.21354 2.7972 8.44271 2.61458 8.69336 2.34961L9.54199 1.42578C9.82845 1.13216 10.1328 0.913737 10.4551 0.770508C10.7773 0.620117 11.2142 0.544922 11.7656 0.544922H16.1807C16.7249 0.544922 17.1582 0.620117 17.4805 0.770508C17.8099 0.913737 18.1143 1.13216 18.3936 1.42578L19.2422 2.34961C19.4141 2.52865 19.568 2.66829 19.7041 2.76855C19.8473 2.86882 20.0049 2.94043 20.1768 2.9834C20.3558 3.01921 20.5885 3.03711 20.875 3.03711H23.7432C24.9033 3.03711 25.7806 3.33431 26.375 3.92871C26.9766 4.51595 27.2773 5.38249 27.2773 6.52832V17.7969C27.2773 18.9427 26.9766 19.8092 26.375 20.3965C25.7806 20.9909 24.9033 21.2881 23.7432 21.2881H4.24609ZM14 17.9258C14.8021 17.9258 15.554 17.779 16.2559 17.4854C16.9577 17.1846 17.5736 16.7692 18.1035 16.2393C18.6335 15.7093 19.0452 15.0934 19.3389 14.3916C19.6396 13.6898 19.79 12.9307 19.79 12.1143C19.79 11.04 19.5322 10.0625 19.0166 9.18164C18.501 8.30078 17.8027 7.60254 16.9219 7.08691C16.041 6.57129 15.0671 6.31348 14 6.31348C13.1908 6.31348 12.4352 6.46387 11.7334 6.76465C11.0316 7.05827 10.4157 7.47005 9.88574 8C9.36296 8.52995 8.95117 9.14583 8.65039 9.84766C8.34961 10.5495 8.19922 11.305 8.19922 12.1143C8.19922 12.9307 8.34961 13.6898 8.65039 14.3916C8.95117 15.0934 9.36296 15.7093 9.88574 16.2393C10.4157 16.7692 11.0316 17.1846 11.7334 17.4854C12.4352 17.779 13.1908 17.9258 14 17.9258ZM14 16.0029C13.2839 16.0029 12.6322 15.8311 12.0449 15.4873C11.4577 15.1364 10.9886 14.6673 10.6377 14.0801C10.2868 13.4928 10.1113 12.8376 10.1113 12.1143C10.1113 11.3981 10.2868 10.7464 10.6377 10.1592C10.9886 9.57194 11.4577 9.10286 12.0449 8.75195C12.6322 8.40104 13.2839 8.22559 14 8.22559C14.7161 8.22559 15.3678 8.40104 15.9551 8.75195C16.5423 9.10286 17.0078 9.57194 17.3516 10.1592C17.7025 10.7464 17.8779 11.3981 17.8779 12.1143C17.8779 12.8376 17.7025 13.4928 17.3516 14.0801C17.0078 14.6673 16.5423 15.1364 15.9551 15.4873C15.3678 15.8311 14.7161 16.0029 14 16.0029ZM20.4883 8.17188C20.4883 8.57292 20.6279 8.91309 20.9072 9.19238C21.1937 9.46452 21.5339 9.59701 21.9277 9.58984C22.3073 9.58984 22.6367 9.45378 22.916 9.18164C23.2025 8.90951 23.3457 8.57292 23.3457 8.17188C23.3457 7.79232 23.2025 7.46289 22.916 7.18359C22.6367 6.89714 22.3073 6.75391 21.9277 6.75391C21.5339 6.75391 21.1937 6.89714 20.9072 7.18359C20.6279 7.46289 20.4883 7.79232 20.4883 8.17188Z" fill="white"/>
</svg>
