<svg width="188" height="188" viewBox="0 0 188 188" fill="none" xmlns="http://www.w3.org/2000/svg">
<path d="M141.572 70.1246C140.778 80.3412 139.16 90.3894 134.32 99.6132C129.587 108.639 125.265 117.953 118.306 125.57C117.381 126.587 115.751 127.363 114.385 127.471C110.953 127.742 107.485 127.562 103.611 127.562V92.8202C103.361 92.76 103.11 92.6999 102.859 92.6397C100.364 97.2366 97.8635 101.827 95.3746 106.43C91.9545 112.766 88.5047 119.09 85.1622 125.468C84.3744 126.972 83.491 127.658 81.7183 127.604C77.3732 127.465 73.022 127.562 68.3844 127.562V69.7335H84.1535C83.7536 81.6709 83.3478 93.5542 82.924 106.16C83.676 105.04 84.1297 104.487 84.4579 103.867C90.1401 93.1812 95.8282 82.5013 101.439 71.7792C102.274 70.1787 103.211 69.4146 105.097 69.4988C108.547 69.6613 112.009 69.547 115.698 69.547V106.412C116.563 105.034 116.999 104.451 117.315 103.807C122.359 93.6926 127.378 83.5662 132.428 73.4579C134.588 69.1258 136.361 68.482 141.56 70.1366L141.572 70.1246Z" fill="#B6DBFF"/>
<path d="M62.8791 69.5168C62.9029 69.8295 62.7539 70.4249 62.9864 70.6836C66.0145 74.1057 65.7045 78.1714 64.7389 82.0746C62.1757 92.4553 59.4278 102.794 56.5308 113.084C55.2075 117.781 52.7279 121.853 48.4718 124.614C47.7446 125.089 47.4466 126.238 46.8147 127.302C35.6919 127.302 24.1935 127.555 12.7071 127.212C5.01763 126.983 1.58421 122.761 3.09229 115.063C4.89841 105.861 7.56885 96.8277 9.92337 87.7341C10.5969 85.1239 11.3122 82.5076 12.2719 79.9937C15.2165 72.2773 20.927 68.1094 29.0575 67.8568C37.5815 67.5862 46.1173 67.7185 54.6472 67.8388C56.4891 67.8629 58.3191 68.5786 60.155 68.9695C61.0372 69.1559 61.9313 69.3243 62.891 69.5168H62.8791ZM25.4751 99.8228C29.5582 99.8228 33.2003 99.913 36.8423 99.7867C38.72 99.7205 39.7274 100.226 40.1744 102.222C40.7109 104.64 41.6348 106.974 42.6303 110.095C45.0205 101.086 47.2022 92.9785 49.3242 84.8532C50.3793 80.8116 49.3242 79.3682 45.2649 79.3141C40.8957 79.2539 36.5264 79.2539 32.1631 79.3141C28.5211 79.3622 26.6971 80.7515 25.6897 84.3059C24.4081 88.8287 23.2696 93.3875 22.0596 97.9343C20.9032 102.283 19.6871 106.619 18.5904 110.979C18.0122 113.265 18.3042 115.442 21.1177 115.713C24.0028 115.989 26.9355 115.773 30.1841 115.773C28.5747 110.318 27.0905 105.278 25.487 99.8228H25.4751Z" fill="#B6DBFF"/>
<path d="M124.783 124.19C132.426 115.709 138.992 106.454 143.972 96.1432C149.281 85.1418 152.776 73.7022 151.992 61.2243C151.172 48.1342 142.883 38.2431 130.05 35.4883C128.015 35.0501 125.968 34.672 123.275 34.1378C134.042 31.0349 144.259 29.9245 154.284 33.8558C165.555 38.2731 170.929 49.8027 168.781 63.0069C166.877 74.6865 161.401 84.6856 154.59 94.0185C146.192 105.536 136.023 115.367 124.777 124.184L124.783 124.19Z" fill="#CBE9FF"/>
<path d="M176.788 43.0036C183.821 51.8346 186.434 61.8843 184.772 72.9546C182.75 86.4322 175.724 97.3644 166.867 107.258C154.5 121.072 139.352 131.254 123.062 139.64C111.562 145.56 99.5956 150.561 87.8326 155.958C87.2405 156.228 86.5767 156.336 86.2239 156.438C97.054 149.174 108.195 141.994 119.031 134.363C133.659 124.068 147.497 112.775 159.469 99.3696C167.501 90.3765 174.54 80.717 178.11 68.9563C180.663 60.5455 180.639 52.2128 177.135 44.0241C176.992 43.6939 176.908 43.3398 176.794 42.9976L176.788 43.0036Z" fill="#CBE9FF"/>
<path d="M141.56 66.7453C135.722 56.0928 125.831 53.4598 115.197 52.9717C98.0662 52.1764 82.3249 56.9845 67.9069 66.2572C66.7573 66.9983 65.6376 67.7696 64.0389 68.842C64.3204 68.113 64.3443 67.8358 64.494 67.7033C77.8582 55.5445 92.7613 46.0789 110.622 42.3975C115.478 41.3974 120.801 41.4034 125.705 42.2168C134.656 43.699 140.195 51.1702 141.302 61.7926C141.476 63.4375 141.488 65.1004 141.572 66.7513L141.56 66.7453Z" fill="#E2F3FF"/>
</svg>
