<svg width="60" height="36" viewBox="0 0 60 36" fill="none" xmlns="http://www.w3.org/2000/svg">
<path d="M39.2316 33.5391C39.443 33.9206 39.4931 34.3311 39.3818 34.7704C39.2705 35.2213 39.0312 35.5566 38.664 35.7762C38.2856 36.0075 37.8905 36.0595 37.4787 35.9323C37.067 35.8051 36.7498 35.5508 36.5272 35.1693L26.3942 16.9253C26.0381 17.0756 25.5929 17.2606 25.0587 17.4802C24.5356 17.6883 23.9792 17.9716 23.3893 18.33C22.41 18.9196 21.5419 19.5844 20.7851 20.3244C20.0284 21.0643 19.305 21.8331 18.615 22.6309C17.9361 23.4286 17.2071 24.2032 16.4281 24.9547C15.6602 25.7062 14.7587 26.3883 13.7237 27.0011C13.1005 27.3942 12.4661 27.7237 11.8207 27.9896C11.1752 28.2555 10.5909 28.4116 10.0678 28.4578C9.44461 28.5272 8.86589 28.4463 8.3317 28.215C7.7975 27.9723 7.34121 27.5098 6.96282 26.8277L0.268688 14.7749C-0.0206683 14.2199 -0.0763136 13.6996 0.101752 13.2141C0.279817 12.7169 0.619253 12.3181 1.12006 12.0175C1.49845 11.7978 2.04377 11.5608 2.75603 11.3064C3.4683 11.0405 4.24733 10.6532 5.09314 10.1445C6.0725 9.56643 6.935 8.90743 7.68065 8.16749C8.43742 7.416 9.16081 6.64716 9.85082 5.86099C10.5408 5.06325 11.2698 4.28863 12.0377 3.53714C12.8167 2.78564 13.7182 2.09774 14.742 1.47342C15.3875 1.09189 16.0275 0.768169 16.6618 0.502256C17.3073 0.236343 17.8916 0.0744824 18.4146 0.0166752C19.0379 -0.0411321 19.611 0.0513595 20.1341 0.29415C20.6683 0.525379 21.1246 0.987837 21.503 1.68152L39.2316 33.5391ZM31.2186 14.7402L38.497 1.68152C38.8754 0.987837 39.3262 0.525379 39.8492 0.29415C40.3834 0.0513595 40.9621 -0.0411321 41.5854 0.0166752C42.1084 0.0744824 42.6871 0.236343 43.3215 0.502256C43.967 0.768169 44.6125 1.09189 45.258 1.47342C46.2818 2.09774 47.1777 2.78564 47.9456 3.53714C48.7247 4.28863 49.4592 5.06325 50.1492 5.86099C50.8392 6.64716 51.557 7.416 52.3027 8.16749C53.0483 8.90743 53.9108 9.56643 54.8902 10.1445C55.7471 10.6532 56.5317 11.0405 57.244 11.3064C57.9562 11.5608 58.5015 11.7978 58.8799 12.0175C59.3807 12.3181 59.7202 12.7169 59.8982 13.2141C60.0763 13.6996 60.0207 14.2199 59.7313 14.7749L53.0205 26.8277C52.6532 27.5098 52.2025 27.9723 51.6683 28.215C51.1341 28.4463 50.5498 28.5272 49.9155 28.4578C49.4035 28.4116 48.8248 28.2555 48.1793 27.9896C47.5339 27.7237 46.8939 27.3942 46.2596 27.0011C45.2357 26.3883 44.3342 25.7062 43.5552 24.9547C42.7873 24.2032 42.0583 23.4286 41.3683 22.6309C40.6783 21.8331 39.955 21.0643 39.1982 20.3244C38.4525 19.5844 37.59 18.9196 36.6107 18.33C36.0208 17.9716 35.4588 17.6883 34.9246 17.4802C34.4015 17.2606 33.9619 17.0756 33.6058 16.9253L33.0215 17.9832L31.2186 14.7402ZM28.7814 25.6311L23.4561 35.1693C23.2447 35.5508 22.933 35.8051 22.5213 35.9323C22.1095 36.0595 21.7144 36.0075 21.336 35.7762C20.9688 35.5566 20.7295 35.2213 20.6182 34.7704C20.5069 34.3311 20.557 33.9206 20.7684 33.5391L26.9618 22.3707L28.7814 25.6311Z" fill="white"/>
</svg>
