<svg width="33" height="19" viewBox="0 0 33 19" fill="none" xmlns="http://www.w3.org/2000/svg">
<path d="M21.1104 17.4941C21.2217 17.6875 21.248 17.8955 21.1895 18.1182C21.1309 18.3467 21.0049 18.5166 20.8115 18.6279C20.6123 18.7451 20.4043 18.7715 20.1875 18.707C19.9707 18.6426 19.8037 18.5137 19.6865 18.3203L14.3516 9.07422C14.1641 9.15039 13.9297 9.24414 13.6484 9.35547C13.373 9.46094 13.0801 9.60449 12.7695 9.78613C12.2539 10.085 11.7969 10.4219 11.3984 10.7969C11 11.1719 10.6191 11.5615 10.2559 11.9658C9.89844 12.3701 9.51465 12.7627 9.10449 13.1436C8.7002 13.5244 8.22559 13.8701 7.68066 14.1807C7.35254 14.3799 7.01855 14.5469 6.67871 14.6816C6.33887 14.8164 6.03125 14.8955 5.75586 14.9189C5.42773 14.9541 5.12305 14.9131 4.8418 14.7959C4.56055 14.6729 4.32031 14.4385 4.12109 14.0928L0.59668 7.98438C0.444336 7.70312 0.415039 7.43945 0.508789 7.19336C0.602539 6.94141 0.78125 6.73926 1.04492 6.58691C1.24414 6.47559 1.53125 6.35547 1.90625 6.22656C2.28125 6.0918 2.69141 5.89551 3.13672 5.6377C3.65234 5.34473 4.10645 5.01074 4.49902 4.63574C4.89746 4.25488 5.27832 3.86523 5.6416 3.4668C6.00488 3.0625 6.38867 2.66992 6.79297 2.28906C7.20312 1.9082 7.67773 1.55957 8.2168 1.24316C8.55664 1.0498 8.89355 0.885742 9.22754 0.750977C9.56738 0.616211 9.875 0.53418 10.1504 0.504883C10.4785 0.475586 10.7803 0.522461 11.0557 0.645508C11.3369 0.762695 11.5771 0.99707 11.7764 1.34863L21.1104 17.4941ZM16.8916 7.9668L20.7236 1.34863C20.9229 0.99707 21.1602 0.762695 21.4355 0.645508C21.7168 0.522461 22.0215 0.475586 22.3496 0.504883C22.625 0.53418 22.9297 0.616211 23.2637 0.750977C23.6035 0.885742 23.9434 1.0498 24.2832 1.24316C24.8223 1.55957 25.2939 1.9082 25.6982 2.28906C26.1084 2.66992 26.4951 3.0625 26.8584 3.4668C27.2217 3.86523 27.5996 4.25488 27.9922 4.63574C28.3848 5.01074 28.8389 5.34473 29.3545 5.6377C29.8057 5.89551 30.2188 6.0918 30.5938 6.22656C30.9688 6.35547 31.2559 6.47559 31.4551 6.58691C31.7188 6.73926 31.8975 6.94141 31.9912 7.19336C32.085 7.43945 32.0557 7.70312 31.9033 7.98438L28.3701 14.0928C28.1768 14.4385 27.9395 14.6729 27.6582 14.7959C27.377 14.9131 27.0693 14.9541 26.7354 14.9189C26.4658 14.8955 26.1611 14.8164 25.8213 14.6816C25.4814 14.5469 25.1445 14.3799 24.8105 14.1807C24.2715 13.8701 23.7969 13.5244 23.3867 13.1436C22.9824 12.7627 22.5986 12.3701 22.2354 11.9658C21.8721 11.5615 21.4912 11.1719 21.0928 10.7969C20.7002 10.4219 20.2461 10.085 19.7305 9.78613C19.4199 9.60449 19.124 9.46094 18.8428 9.35547C18.5674 9.24414 18.3359 9.15039 18.1484 9.07422L17.8408 9.61035L16.8916 7.9668ZM15.6084 13.4863L12.8047 18.3203C12.6934 18.5137 12.5293 18.6426 12.3125 18.707C12.0957 18.7715 11.8877 18.7451 11.6885 18.6279C11.4951 18.5166 11.3691 18.3467 11.3105 18.1182C11.252 17.8955 11.2783 17.6875 11.3896 17.4941L14.6504 11.834L15.6084 13.4863Z" fill="#315478"/>
</svg>
