<svg width="26" height="25" viewBox="0 0 26 25" fill="none" xmlns="http://www.w3.org/2000/svg">
<path d="M5.54492 23.7715C5.29427 23.5853 5.1403 23.3346 5.08301 23.0195C5.03288 22.7116 5.07943 22.3464 5.22266 21.9238L7.43555 15.3604L1.7959 11.3105C1.43066 11.0527 1.17643 10.7842 1.0332 10.5049C0.889974 10.2184 0.86849 9.9248 0.96875 9.62402C1.06901 9.3304 1.25879 9.11198 1.53809 8.96875C1.81738 8.81836 2.18262 8.74674 2.63379 8.75391L9.54102 8.79688L11.6465 2.20117C11.7826 1.77148 11.9616 1.44564 12.1836 1.22363C12.4128 0.994466 12.6813 0.879883 12.9893 0.879883C13.3044 0.879883 13.5729 0.994466 13.7949 1.22363C14.0241 1.44564 14.2067 1.77148 14.3428 2.20117L16.4482 8.79688L23.3555 8.75391C23.8066 8.74674 24.1719 8.81836 24.4512 8.96875C24.7305 9.11198 24.9202 9.3304 25.0205 9.62402C25.1208 9.9248 25.0993 10.2184 24.9561 10.5049C24.8128 10.7842 24.5586 11.0527 24.1934 11.3105L18.5537 15.3604L20.7666 21.9238C20.9098 22.3464 20.9528 22.7116 20.8955 23.0195C20.8454 23.3346 20.695 23.5853 20.4443 23.7715C20.1937 23.972 19.9108 24.0436 19.5957 23.9863C19.2806 23.929 18.944 23.7715 18.5859 23.5137L12.9893 19.3994L7.40332 23.5137C7.04525 23.7715 6.70866 23.929 6.39355 23.9863C6.07845 24.0436 5.79557 23.972 5.54492 23.7715Z" fill="white"/>
</svg>
