<svg width="20" height="25" viewBox="0 0 20 25" fill="none" xmlns="http://www.w3.org/2000/svg">
<path d="M3.8125 24.6416C2.65234 24.6416 1.77507 24.348 1.18066 23.7607C0.586263 23.1735 0.289062 22.3034 0.289062 21.1504V10.8486C0.289062 9.7028 0.586263 8.83626 1.18066 8.24902C1.77507 7.65462 2.65234 7.35742 3.8125 7.35742H8.76465V15.1777C8.76465 15.5143 8.88639 15.8008 9.12988 16.0371C9.37337 16.2734 9.66341 16.3916 10 16.3916C10.3438 16.3916 10.6374 16.2734 10.8809 16.0371C11.1315 15.8008 11.2568 15.5143 11.2568 15.1777V7.35742H16.1875C17.3477 7.35742 18.2249 7.65462 18.8193 8.24902C19.4137 8.84342 19.7109 9.70996 19.7109 10.8486V21.1504C19.7109 22.2962 19.4137 23.1628 18.8193 23.75C18.2249 24.3444 17.3477 24.6416 16.1875 24.6416H3.8125ZM10 8.46387C9.72786 8.46387 9.49512 8.36719 9.30176 8.17383C9.1084 7.98047 9.01172 7.7513 9.01172 7.48633V4.28516L9.09766 2.68457L8.4209 3.46875L6.91699 5.08008C6.74512 5.27344 6.52311 5.37012 6.25098 5.37012C6.00033 5.37012 5.78906 5.29134 5.61719 5.13379C5.45247 4.96908 5.37012 4.76139 5.37012 4.51074C5.37012 4.28158 5.45964 4.07031 5.63867 3.87695L9.24805 0.407227C9.38411 0.27832 9.50944 0.188802 9.62402 0.138672C9.74577 0.0885417 9.87109 0.0634766 10 0.0634766C10.1361 0.0634766 10.265 0.0885417 10.3867 0.138672C10.5085 0.188802 10.6338 0.27832 10.7627 0.407227L14.3613 3.87695C14.5547 4.07031 14.6514 4.28158 14.6514 4.51074C14.6514 4.76139 14.5618 4.96908 14.3828 5.13379C14.2109 5.29134 14.0033 5.37012 13.7598 5.37012C13.4948 5.37012 13.2728 5.27344 13.0938 5.08008L11.5898 3.46875L10.9238 2.68457L11.0098 4.28516V7.48633C11.0098 7.7513 10.9095 7.98047 10.709 8.17383C10.5156 8.36719 10.2793 8.46387 10 8.46387Z" fill="white"/>
</svg>
