<svg width="17" height="20" viewBox="0 0 17 20" fill="none" xmlns="http://www.w3.org/2000/svg">
<path d="M5.125 4.73242H12.165C12.3291 4.73242 12.4668 4.67676 12.5781 4.56543C12.6895 4.4541 12.7451 4.31641 12.7451 4.15234C12.7451 3.98828 12.6895 3.85059 12.5781 3.73926C12.4668 3.62207 12.3291 3.56348 12.165 3.56348H5.125C4.95508 3.56348 4.81152 3.62207 4.69434 3.73926C4.58301 3.85059 4.52734 3.98828 4.52734 4.15234C4.52734 4.31641 4.58301 4.4541 4.69434 4.56543C4.81152 4.67676 4.95508 4.73242 5.125 4.73242ZM5.125 7.35156H9.23828C9.4082 7.35156 9.54883 7.2959 9.66016 7.18457C9.77148 7.07324 9.82715 6.93555 9.82715 6.77148C9.82715 6.61328 9.77148 6.47852 9.66016 6.36719C9.54883 6.25 9.4082 6.19141 9.23828 6.19141H5.125C4.95508 6.19141 4.81152 6.25 4.69434 6.36719C4.58301 6.47852 4.52734 6.61328 4.52734 6.77148C4.52734 6.93555 4.58301 7.07324 4.69434 7.18457C4.81152 7.2959 4.95508 7.35156 5.125 7.35156ZM5.25684 16.0791H11.752C12.5371 16.0791 12.9297 15.6836 12.9297 14.8926V9.99707C12.9297 9.20605 12.5371 8.81055 11.752 8.81055H5.25684C4.88184 8.81055 4.58887 8.91016 4.37793 9.10938C4.17285 9.30859 4.07031 9.60449 4.07031 9.99707V14.8926C4.07031 15.2793 4.17285 15.5752 4.37793 15.7803C4.58887 15.9795 4.88184 16.0791 5.25684 16.0791ZM0.958984 16.29V3.02734C0.958984 2.08398 1.19922 1.36914 1.67969 0.882812C2.16016 0.390625 2.87207 0.144531 3.81543 0.144531H13.1758C14.1191 0.144531 14.8311 0.390625 15.3115 0.882812C15.792 1.36914 16.0322 2.08398 16.0322 3.02734V16.29C16.0322 17.2393 15.792 17.957 15.3115 18.4434C14.8311 18.9297 14.1191 19.1729 13.1758 19.1729H3.81543C2.87207 19.1729 2.16016 18.9297 1.67969 18.4434C1.19922 17.957 0.958984 17.2393 0.958984 16.29Z" fill="#315478"/>
</svg>
