<svg width="50" height="64" viewBox="0 0 50 64" fill="none" xmlns="http://www.w3.org/2000/svg">
<path d="M13.8192 15.4309H37.172C37.7162 15.4309 38.173 15.2437 38.5423 14.8693C38.9116 14.4948 39.0962 14.0317 39.0962 13.4799C39.0962 12.9281 38.9116 12.465 38.5423 12.0905C38.173 11.6964 37.7162 11.4993 37.172 11.4993H13.8192C13.2556 11.4993 12.7794 11.6964 12.3907 12.0905C12.0214 12.465 11.8367 12.9281 11.8367 13.4799C11.8367 14.0317 12.0214 14.4948 12.3907 14.8693C12.7794 15.2437 13.2556 15.4309 13.8192 15.4309ZM13.8192 24.2402H27.4636C28.0272 24.2402 28.4937 24.053 28.863 23.6785C29.2323 23.3041 29.4169 22.841 29.4169 22.2891C29.4169 21.757 29.2323 21.3038 28.863 20.9293C28.4937 20.5352 28.0272 20.3381 27.4636 20.3381H13.8192C13.2556 20.3381 12.7794 20.5352 12.3907 20.9293C12.0214 21.3038 11.8367 21.757 11.8367 22.2891C11.8367 22.841 12.0214 23.3041 12.3907 23.6785C12.7794 24.053 13.2556 24.2402 13.8192 24.2402ZM14.2566 53.5945H35.8018C38.4062 53.5945 39.7085 52.2642 39.7085 49.6037V33.1381C39.7085 30.4776 38.4062 29.1473 35.8018 29.1473H14.2566C13.0126 29.1473 12.0408 29.4824 11.3411 30.1524C10.6608 30.8225 10.3207 31.8177 10.3207 33.1381V49.6037C10.3207 50.9044 10.6608 51.8996 11.3411 52.5894C12.0408 53.2594 13.0126 53.5945 14.2566 53.5945ZM0 54.3039V9.69607C0 6.52317 0.79689 4.11886 2.39067 2.48314C3.98445 0.827714 6.34597 0 9.47522 0H40.5248C43.654 0 46.0155 0.827714 47.6093 2.48314C49.2031 4.11886 50 6.52317 50 9.69607V54.3039C50 57.4965 49.2031 59.9107 47.6093 61.5464C46.0155 63.1821 43.654 64 40.5248 64H9.47522C6.34597 64 3.98445 63.1821 2.39067 61.5464C0.79689 59.9107 0 57.4965 0 54.3039Z" fill="white"/>
</svg>
