<svg width="25" height="17" viewBox="0 0 25 17" fill="none" xmlns="http://www.w3.org/2000/svg">
<path d="M11.6123 16.5996C10.8916 16.5996 10.3877 16.4912 10.1006 16.2744C9.81348 16.0635 9.66992 15.7559 9.66992 15.3516C9.66992 14.7832 9.83984 14.1885 10.1797 13.5674C10.5254 12.9463 11.0205 12.3633 11.665 11.8184C12.3154 11.2734 13.0977 10.8311 14.0117 10.4912C14.9258 10.1514 15.9512 9.98145 17.0879 9.98145C18.2305 9.98145 19.2588 10.1514 20.1729 10.4912C21.0869 10.8311 21.8662 11.2734 22.5107 11.8184C23.1611 12.3633 23.6592 12.9463 24.0049 13.5674C24.3506 14.1885 24.5234 14.7832 24.5234 15.3516C24.5234 15.7559 24.377 16.0635 24.084 16.2744C23.7969 16.4912 23.293 16.5996 22.5723 16.5996H11.6123ZM17.0967 8.41699C16.4521 8.41699 15.8604 8.24414 15.3213 7.89844C14.7881 7.55273 14.3604 7.08691 14.0381 6.50098C13.7158 5.91504 13.5547 5.25879 13.5547 4.53223C13.5547 3.81738 13.7158 3.17285 14.0381 2.59863C14.3662 2.01855 14.7998 1.55859 15.3389 1.21875C15.8779 0.878906 16.4639 0.708984 17.0967 0.708984C17.7354 0.708984 18.3213 0.875977 18.8545 1.20996C19.3936 1.54395 19.8242 2.00098 20.1465 2.58105C20.4746 3.15527 20.6387 3.7998 20.6387 4.51465C20.6387 5.24707 20.4746 5.90918 20.1465 6.50098C19.8242 7.08691 19.3936 7.55273 18.8545 7.89844C18.3213 8.24414 17.7354 8.41699 17.0967 8.41699ZM2.09375 16.5996C1.50195 16.5996 1.08301 16.4795 0.836914 16.2393C0.59082 16.0049 0.467773 15.6709 0.467773 15.2373C0.467773 14.6396 0.620117 14.0332 0.924805 13.418C1.22949 12.7969 1.66309 12.2256 2.22559 11.7041C2.79395 11.1826 3.47363 10.7607 4.26465 10.4385C5.06152 10.1162 5.95215 9.95508 6.93652 9.95508C7.7334 9.95508 8.44531 10.0605 9.07227 10.2715C9.70508 10.4766 10.2646 10.7344 10.751 11.0449C10.2529 11.4375 9.82227 11.8828 9.45898 12.3809C9.0957 12.873 8.81445 13.3799 8.61523 13.9014C8.42188 14.417 8.3252 14.9092 8.3252 15.3779C8.3252 15.8525 8.44238 16.2598 8.67676 16.5996H2.09375ZM6.93652 8.61914C6.37988 8.61914 5.86719 8.46973 5.39844 8.1709C4.92969 7.86621 4.55469 7.45898 4.27344 6.94922C3.99219 6.43359 3.85156 5.8623 3.85156 5.23535C3.85156 4.6084 3.99219 4.0459 4.27344 3.54785C4.56055 3.04395 4.93848 2.64551 5.40723 2.35254C5.87598 2.05371 6.38574 1.9043 6.93652 1.9043C7.4873 1.9043 7.99707 2.05078 8.46582 2.34375C8.94043 2.63086 9.31836 3.02637 9.59961 3.53027C9.88086 4.02832 10.0215 4.59082 10.0215 5.21777C10.0215 5.85645 9.88086 6.43359 9.59961 6.94922C9.31836 7.45898 8.94336 7.86621 8.47461 8.1709C8.00586 8.46973 7.49316 8.61914 6.93652 8.61914Z" fill="#315478"/>
</svg>
