<svg width="68" height="44" viewBox="0 0 68 44" fill="none" xmlns="http://www.w3.org/2000/svg">
<path d="M31.5031 44C29.4658 44 28.0414 43.6999 27.2298 43.0996C26.4182 42.5155 26.0124 41.6637 26.0124 40.5442C26.0124 38.9705 26.4928 37.3237 27.4534 35.604C28.4306 33.8842 29.8302 32.2699 31.6522 30.7611C33.4907 29.2522 35.7019 28.0273 38.2857 27.0863C40.8696 26.1453 43.7681 25.6748 46.9814 25.6748C50.2112 25.6748 53.118 26.1453 55.7019 27.0863C58.2857 28.0273 60.4886 29.2522 62.3106 30.7611C64.1491 32.2699 65.5569 33.8842 66.5342 35.604C67.5114 37.3237 68 38.9705 68 40.5442C68 41.6637 67.5859 42.5155 66.7578 43.0996C65.9462 43.6999 64.5217 44 62.4845 44H31.5031ZM47.0062 21.3429C45.1843 21.3429 43.5114 20.8643 41.9876 19.9071C40.4803 18.9499 39.2712 17.66 38.3602 16.0376C37.4493 14.4152 36.9938 12.5981 36.9938 10.5863C36.9938 8.60693 37.4493 6.82227 38.3602 5.2323C39.2878 3.62611 40.5135 2.35251 42.0373 1.4115C43.5611 0.470501 45.2174 0 47.0062 0C48.8116 0 50.4679 0.462389 51.9752 1.38717C53.499 2.31195 54.7164 3.57743 55.6273 5.18363C56.5549 6.7736 57.0186 8.55826 57.0186 10.5376C57.0186 12.5656 56.5549 14.399 55.6273 16.0376C54.7164 17.66 53.499 18.9499 51.9752 19.9071C50.4679 20.8643 48.8116 21.3429 47.0062 21.3429ZM4.59627 44C2.9234 44 1.73913 43.6674 1.04348 43.0022C0.347826 42.3532 0 41.4285 0 40.2279C0 38.573 0.430642 36.8938 1.29193 35.1903C2.15321 33.4705 3.37888 31.8886 4.96894 30.4447C6.57557 29.0007 8.49689 27.8326 10.7329 26.9403C12.9855 26.0479 15.5031 25.6018 18.2857 25.6018C20.5383 25.6018 22.5507 25.8938 24.323 26.4779C26.1118 27.0457 27.6936 27.7596 29.0683 28.6195C27.6605 29.7065 26.4431 30.9395 25.4161 32.3186C24.3892 33.6814 23.5942 35.0848 23.0311 36.5288C22.4845 37.9565 22.2112 39.3193 22.2112 40.6173C22.2112 41.9314 22.5424 43.059 23.205 44H4.59627ZM18.2857 21.9027C16.7122 21.9027 15.2629 21.4889 13.9379 20.6615C12.6128 19.8178 11.5528 18.6903 10.7578 17.2788C9.96273 15.851 9.56522 14.2692 9.56522 12.5332C9.56522 10.7972 9.96273 9.23968 10.7578 7.86062C11.5694 6.46534 12.6377 5.36209 13.9627 4.55088C15.2878 3.72345 16.7288 3.30973 18.2857 3.30973C19.8426 3.30973 21.2836 3.71534 22.6087 4.52655C23.9503 5.32153 25.0186 6.41667 25.8137 7.81195C26.6087 9.191 27.0062 10.7485 27.0062 12.4845C27.0062 14.2529 26.6087 15.851 25.8137 17.2788C25.0186 18.6903 23.9586 19.8178 22.6335 20.6615C21.3085 21.4889 19.8592 21.9027 18.2857 21.9027Z" fill="white"/>
</svg>
