<svg width="20" height="24" viewBox="0 0 20 24" fill="none" xmlns="http://www.w3.org/2000/svg">
<path d="M5.82129 15.4883H14.2002C14.4222 15.4883 14.6048 15.4167 14.748 15.2734C14.8984 15.123 14.9736 14.9404 14.9736 14.7256C14.9736 14.5107 14.8984 14.3317 14.748 14.1885C14.6048 14.0381 14.4222 13.9629 14.2002 13.9629H5.82129C5.59928 13.9629 5.41309 14.0381 5.2627 14.1885C5.1123 14.3317 5.03711 14.5107 5.03711 14.7256C5.03711 14.9404 5.1123 15.123 5.2627 15.2734C5.41309 15.4167 5.59928 15.4883 5.82129 15.4883ZM5.82129 19.5166H14.2002C14.4222 19.5166 14.6048 19.445 14.748 19.3018C14.8984 19.1514 14.9736 18.9723 14.9736 18.7646C14.9736 18.5498 14.8984 18.3708 14.748 18.2275C14.6048 18.0771 14.4222 18.002 14.2002 18.002H5.82129C5.59928 18.002 5.41309 18.0771 5.2627 18.2275C5.1123 18.3708 5.03711 18.5498 5.03711 18.7646C5.03711 18.9723 5.1123 19.1514 5.2627 19.3018C5.41309 19.445 5.59928 19.5166 5.82129 19.5166ZM4.27441 23.8779C3.12142 23.8779 2.2513 23.5807 1.66406 22.9863C1.07682 22.3919 0.783203 21.5146 0.783203 20.3545V4.14453C0.783203 2.99154 1.07682 2.11784 1.66406 1.52344C2.2513 0.921875 3.12142 0.621094 4.27441 0.621094H9.17285V8.74219C9.17285 10.0742 9.83887 10.7402 11.1709 10.7402H19.2061V20.3545C19.2061 21.5075 18.9124 22.3812 18.3252 22.9756C17.738 23.5771 16.8678 23.8779 15.7148 23.8779H4.27441ZM11.3643 9.17188C10.9561 9.17188 10.752 8.96777 10.752 8.55957V0.728516C10.9954 0.757161 11.2389 0.857422 11.4824 1.0293C11.7331 1.20117 11.9909 1.42318 12.2559 1.69531L18.1211 7.64648C18.4004 7.93294 18.6224 8.19792 18.7871 8.44141C18.959 8.6849 19.0592 8.92839 19.0879 9.17188H11.3643Z" fill="white"/>
</svg>
