<svg width="40" height="58" viewBox="0 0 40 58" fill="none" xmlns="http://www.w3.org/2000/svg">
<path d="M10.0234 27.1964C10.6308 27.1964 11.1526 26.9828 11.5888 26.5556C12.0249 26.1127 12.243 25.5827 12.243 24.9656C12.243 24.3328 12.0249 23.8028 11.5888 23.3756C11.1526 22.9484 10.6308 22.7349 10.0234 22.7349C9.43146 22.7349 8.91745 22.9564 8.48131 23.3993C8.04517 23.8265 7.8271 24.3486 7.8271 24.9656C7.8271 25.5668 8.04517 26.0889 8.48131 26.5319C8.91745 26.9749 9.43146 27.1964 10.0234 27.1964ZM10.0234 35.8822C10.6308 35.8822 11.1526 35.6686 11.5888 35.2414C12.0249 34.7984 12.243 34.2684 12.243 33.6514C12.243 33.0186 12.0249 32.4965 11.5888 32.0851C11.1526 31.6579 10.6308 31.4444 10.0234 31.4444C9.41589 31.4444 8.89408 31.6579 8.45794 32.0851C8.03738 32.5123 7.8271 33.0344 7.8271 33.6514C7.8271 34.2684 8.03738 34.7984 8.45794 35.2414C8.89408 35.6686 9.41589 35.8822 10.0234 35.8822ZM10.0234 45.0663C10.6308 45.0663 11.1526 44.8448 11.5888 44.4018C12.0249 43.9588 12.243 43.4288 12.243 42.8118C12.243 42.1948 12.0249 41.6727 11.5888 41.2455C11.1526 40.8025 10.6308 40.581 10.0234 40.581C9.43146 40.581 8.91745 40.8025 8.48131 41.2455C8.04517 41.6885 7.8271 42.2106 7.8271 42.8118C7.8271 43.4288 8.04517 43.9588 8.48131 44.4018C8.91745 44.8448 9.43146 45.0663 10.0234 45.0663ZM16.6589 26.698H30.4673C30.9346 26.698 31.3318 26.5319 31.6589 26.1997C32.0016 25.8516 32.1729 25.4403 32.1729 24.9656C32.1729 24.4752 32.0016 24.0559 31.6589 23.7079C31.3318 23.3598 30.9346 23.1858 30.4673 23.1858H16.6589C16.1916 23.1858 15.7866 23.3598 15.4439 23.7079C15.1012 24.0559 14.9299 24.4752 14.9299 24.9656C14.9299 25.4403 15.1012 25.8516 15.4439 26.1997C15.7866 26.5319 16.1916 26.698 16.6589 26.698ZM16.6589 35.3838H30.4673C30.9502 35.3838 31.3551 35.2177 31.6822 34.8854C32.0093 34.5374 32.1729 34.126 32.1729 33.6514C32.1729 33.1609 32.0093 32.7496 31.6822 32.4174C31.3551 32.0851 30.9502 31.919 30.4673 31.919H16.6589C16.176 31.919 15.7632 32.0851 15.4206 32.4174C15.0935 32.7496 14.9299 33.1609 14.9299 33.6514C14.9299 34.126 15.0935 34.5374 15.4206 34.8854C15.7632 35.2177 16.176 35.3838 16.6589 35.3838ZM16.6589 44.5679H30.4673C30.9346 44.5679 31.3318 44.3939 31.6589 44.0458C32.0016 43.6978 32.1729 43.2864 32.1729 42.8118C32.1729 42.3372 32.0093 41.9337 31.6822 41.6015C31.3551 41.2692 30.9502 41.1031 30.4673 41.1031H16.6589C16.176 41.1031 15.7632 41.2692 15.4206 41.6015C15.0935 41.9337 14.9299 42.3372 14.9299 42.8118C14.9299 43.2864 15.1012 43.6978 15.4439 44.0458C15.7866 44.3939 16.1916 44.5679 16.6589 44.5679ZM7.59346 58C5.11682 58 3.23209 57.3355 1.93925 56.0065C0.646417 54.6776 0 52.7395 0 50.1923V14.2627C0 11.6997 0.638629 9.75368 1.91589 8.42471C3.19315 7.09575 5.02336 6.43126 7.40654 6.43126H7.8972C7.86604 6.54201 7.83489 6.66067 7.80374 6.78723C7.78816 6.9138 7.78037 7.04037 7.78037 7.16694V9.9198C7.78037 11.4386 8.23988 12.6964 9.15888 13.6931C10.0935 14.674 11.3084 15.1645 12.8037 15.1645H27.1963C28.6916 15.1645 29.8988 14.674 30.8178 13.6931C31.7523 12.6964 32.2196 11.4386 32.2196 9.9198V7.16694C32.2196 7.04037 32.204 6.9138 32.1729 6.78723C32.1573 6.66067 32.134 6.54201 32.1028 6.43126H32.5935C34.9766 6.43126 36.8069 7.09575 38.0841 8.42471C39.3614 9.75368 40 11.6997 40 14.2627V50.1923C40 52.7395 39.3536 54.6776 38.0607 56.0065C36.7679 57.3355 34.8754 58 32.3832 58H7.59346ZM12.8037 12.3642C12.0872 12.3642 11.5265 12.1506 11.1215 11.7234C10.7321 11.2962 10.5374 10.695 10.5374 9.9198V7.42799C10.5374 6.65276 10.7321 6.05156 11.1215 5.62439C11.5265 5.19722 12.0872 4.98363 12.8037 4.98363H14.7897C14.8676 3.6072 15.405 2.43644 16.4019 1.47136C17.3988 0.490453 18.5981 0 20 0C21.3863 0 22.5779 0.490453 23.5748 1.47136C24.5872 2.43644 25.1324 3.6072 25.2103 4.98363H27.1963C27.9128 4.98363 28.4657 5.19722 28.8551 5.62439C29.2601 6.05156 29.4626 6.65276 29.4626 7.42799V9.9198C29.4626 10.695 29.2601 11.2962 28.8551 11.7234C28.4657 12.1506 27.9128 12.3642 27.1963 12.3642H12.8037ZM20 7.2856C20.5763 7.2856 21.0592 7.07992 21.4486 6.66858C21.8536 6.24141 22.0561 5.75095 22.0561 5.19722C22.0561 4.61184 21.8536 4.11348 21.4486 3.70213C21.0592 3.29078 20.5763 3.08511 20 3.08511C19.4237 3.08511 18.933 3.29078 18.528 3.70213C18.1386 4.11348 17.9439 4.61184 17.9439 5.19722C17.9439 5.75095 18.1386 6.24141 18.528 6.66858C18.933 7.07992 19.4237 7.2856 20 7.2856Z" fill="white"/>
</svg>
