<svg width="16" height="22" viewBox="0 0 16 22" fill="none" xmlns="http://www.w3.org/2000/svg">
<path d="M4.49707 10.4678C4.72559 10.4678 4.92188 10.3887 5.08594 10.2305C5.25 10.0664 5.33203 9.87012 5.33203 9.6416C5.33203 9.40723 5.25 9.21094 5.08594 9.05273C4.92188 8.89453 4.72559 8.81543 4.49707 8.81543C4.27441 8.81543 4.08105 8.89746 3.91699 9.06152C3.75293 9.21973 3.6709 9.41309 3.6709 9.6416C3.6709 9.86426 3.75293 10.0576 3.91699 10.2217C4.08105 10.3857 4.27441 10.4678 4.49707 10.4678ZM4.49707 13.6846C4.72559 13.6846 4.92188 13.6055 5.08594 13.4473C5.25 13.2832 5.33203 13.0869 5.33203 12.8584C5.33203 12.624 5.25 12.4307 5.08594 12.2783C4.92188 12.1201 4.72559 12.041 4.49707 12.041C4.26855 12.041 4.07227 12.1201 3.9082 12.2783C3.75 12.4365 3.6709 12.6299 3.6709 12.8584C3.6709 13.0869 3.75 13.2832 3.9082 13.4473C4.07227 13.6055 4.26855 13.6846 4.49707 13.6846ZM4.49707 17.0859C4.72559 17.0859 4.92188 17.0039 5.08594 16.8398C5.25 16.6758 5.33203 16.4795 5.33203 16.251C5.33203 16.0225 5.25 15.8291 5.08594 15.6709C4.92188 15.5068 4.72559 15.4248 4.49707 15.4248C4.27441 15.4248 4.08105 15.5068 3.91699 15.6709C3.75293 15.835 3.6709 16.0283 3.6709 16.251C3.6709 16.4795 3.75293 16.6758 3.91699 16.8398C4.08105 17.0039 4.27441 17.0859 4.49707 17.0859ZM6.99316 10.2832H12.1875C12.3633 10.2832 12.5127 10.2217 12.6357 10.0986C12.7646 9.96973 12.8291 9.81738 12.8291 9.6416C12.8291 9.45996 12.7646 9.30469 12.6357 9.17578C12.5127 9.04688 12.3633 8.98242 12.1875 8.98242H6.99316C6.81738 8.98242 6.66504 9.04688 6.53613 9.17578C6.40723 9.30469 6.34277 9.45996 6.34277 9.6416C6.34277 9.81738 6.40723 9.96973 6.53613 10.0986C6.66504 10.2217 6.81738 10.2832 6.99316 10.2832ZM6.99316 13.5H12.1875C12.3691 13.5 12.5215 13.4385 12.6445 13.3154C12.7676 13.1865 12.8291 13.0342 12.8291 12.8584C12.8291 12.6768 12.7676 12.5244 12.6445 12.4014C12.5215 12.2783 12.3691 12.2168 12.1875 12.2168H6.99316C6.81152 12.2168 6.65625 12.2783 6.52734 12.4014C6.4043 12.5244 6.34277 12.6768 6.34277 12.8584C6.34277 13.0342 6.4043 13.1865 6.52734 13.3154C6.65625 13.4385 6.81152 13.5 6.99316 13.5ZM6.99316 16.9014H12.1875C12.3633 16.9014 12.5127 16.8369 12.6357 16.708C12.7646 16.5791 12.8291 16.4268 12.8291 16.251C12.8291 16.0752 12.7676 15.9258 12.6445 15.8027C12.5215 15.6797 12.3691 15.6182 12.1875 15.6182H6.99316C6.81152 15.6182 6.65625 15.6797 6.52734 15.8027C6.4043 15.9258 6.34277 16.0752 6.34277 16.251C6.34277 16.4268 6.40723 16.5791 6.53613 16.708C6.66504 16.8369 6.81738 16.9014 6.99316 16.9014ZM3.58301 21.876C2.65137 21.876 1.94238 21.6299 1.45605 21.1377C0.969727 20.6455 0.726562 19.9277 0.726562 18.9844V5.67773C0.726562 4.72852 0.966797 4.00781 1.44727 3.51562C1.92773 3.02344 2.61621 2.77734 3.5127 2.77734H3.69727C3.68555 2.81836 3.67383 2.8623 3.66211 2.90918C3.65625 2.95605 3.65332 3.00293 3.65332 3.0498V4.06934C3.65332 4.63184 3.82617 5.09766 4.17188 5.4668C4.52344 5.83008 4.98047 6.01172 5.54297 6.01172H10.957C11.5195 6.01172 11.9736 5.83008 12.3193 5.4668C12.6709 5.09766 12.8467 4.63184 12.8467 4.06934V3.0498C12.8467 3.00293 12.8408 2.95605 12.8291 2.90918C12.8232 2.8623 12.8145 2.81836 12.8027 2.77734H12.9873C13.8838 2.77734 14.5723 3.02344 15.0527 3.51562C15.5332 4.00781 15.7734 4.72852 15.7734 5.67773V18.9844C15.7734 19.9277 15.5303 20.6455 15.0439 21.1377C14.5576 21.6299 13.8457 21.876 12.9082 21.876H3.58301ZM5.54297 4.97461C5.27344 4.97461 5.0625 4.89551 4.91016 4.7373C4.76367 4.5791 4.69043 4.35645 4.69043 4.06934V3.14648C4.69043 2.85937 4.76367 2.63672 4.91016 2.47852C5.0625 2.32031 5.27344 2.24121 5.54297 2.24121H6.29004C6.31934 1.73145 6.52148 1.29785 6.89648 0.94043C7.27148 0.577148 7.72266 0.395508 8.25 0.395508C8.77148 0.395508 9.21973 0.577148 9.59473 0.94043C9.97559 1.29785 10.1807 1.73145 10.21 2.24121H10.957C11.2266 2.24121 11.4346 2.32031 11.5811 2.47852C11.7334 2.63672 11.8096 2.85937 11.8096 3.14648V4.06934C11.8096 4.35645 11.7334 4.5791 11.5811 4.7373C11.4346 4.89551 11.2266 4.97461 10.957 4.97461H5.54297ZM8.25 3.09375C8.4668 3.09375 8.64844 3.01758 8.79492 2.86523C8.94727 2.70703 9.02344 2.52539 9.02344 2.32031C9.02344 2.10352 8.94727 1.91895 8.79492 1.7666C8.64844 1.61426 8.4668 1.53809 8.25 1.53809C8.0332 1.53809 7.84863 1.61426 7.69629 1.7666C7.5498 1.91895 7.47656 2.10352 7.47656 2.32031C7.47656 2.52539 7.5498 2.70703 7.69629 2.86523C7.84863 3.01758 8.0332 3.09375 8.25 3.09375Z" fill="#315478"/>
</svg>
